<svg width="34" height="20" viewBox="0 0 34 20" fill="none" xmlns="http://www.w3.org/2000/svg">
<path d="M33.6751 9.21517L24.9013 0.325045C24.4735 -0.108348 23.7771 -0.108348 23.3494 0.325045C22.9217 0.758439 22.9217 1.46409 23.3494 1.89748L30.2533 8.88735H1.09673C0.493528 8.88735 0 9.38742 0 9.99861C0 10.6098 0.493528 11.1099 1.09673 11.1099H30.2533L23.3549 18.1053C22.9271 18.5387 22.9271 19.2443 23.3549 19.6777C23.5687 19.8889 23.8484 20 24.1281 20C24.4077 20 24.6874 19.8889 24.9013 19.6722L33.6751 10.7821C34.1083 10.3487 34.1083 9.64856 33.6751 9.21517Z" fill="#1A1A1A"/>
</svg>
